<?xml version="1.0" encoding="UTF-8"?>
<svg width="800" height="600" viewBox="0 0 800 600" fill="none" xmlns="http://www.w3.org/2000/svg">
  <!-- Background -->
  <rect width="800" height="600" fill="#F8FAF9"/>
  
  <!-- Dashboard Frame -->
  <rect x="100" y="50" width="600" height="500" rx="20" fill="white" stroke="#E2E8F0" stroke-width="2"/>
  
  <!-- Header -->
  <rect x="120" y="70" width="560" height="60" rx="10" fill="#F1F5F9"/>
  
  <!-- Sidebar -->
  <rect x="120" y="150" width="120" height="380" rx="10" fill="#F1F5F9"/>
  
  <!-- Main Content -->
  <rect x="260" y="150" width="420" height="180" rx="10" fill="#F1F5F9"/>
  
  <!-- Charts -->
  <rect x="260" y="350" width="200" height="180" rx="10" fill="#F1F5F9"/>
  <rect x="480" y="350" width="200" height="180" rx="10" fill="#F1F5F9"/>
  
  <!-- Brand Colors -->
  <circle cx="150" cy="100" r="15" fill="#8CCFB0"/>
  <circle cx="150" cy="200" r="15" fill="#2D6B4E"/>
  <circle cx="150" cy="300" r="15" fill="#1B2B4D"/>
  
  <!-- Chart Elements -->
  <path d="M280 400 L320 350 L360 380 L400 320 L440 400" stroke="#8CCFB0" stroke-width="4" fill="none"/>
  <path d="M500 400 L540 350 L580 380 L620 320 L660 400" stroke="#2D6B4E" stroke-width="4" fill="none"/>
  
  <!-- Stats -->
  <rect x="300" y="170" width="100" height="40" rx="5" fill="#8CCFB0" fill-opacity="0.2"/>
  <rect x="420" y="170" width="100" height="40" rx="5" fill="#2D6B4E" fill-opacity="0.2"/>
  <rect x="540" y="170" width="100" height="40" rx="5" fill="#1B2B4D" fill-opacity="0.2"/>
</svg> 