<?xml version="1.0" encoding="UTF-8"?>
<svg width="800" height="600" viewBox="0 0 800 600" fill="none" xmlns="http://www.w3.org/2000/svg">
  <!-- Background -->
  <rect width="800" height="600" fill="#F8FAF9"/>
  
  <!-- Main Chart Container -->
  <rect x="100" y="50" width="600" height="500" rx="20" fill="white" stroke="#E2E8F0" stroke-width="2"/>
  
  <!-- Chart Area -->
  <rect x="150" y="100" width="500" height="400" rx="10" fill="#F1F5F9"/>
  
  <!-- Line Chart -->
  <path d="M200 400 L300 300 L400 350 L500 250 L600 300" stroke="#8CCFB0" stroke-width="4" fill="none"/>
  
  <!-- Bar Chart -->
  <rect x="200" y="350" width="40" height="150" fill="#2D6B4E"/>
  <rect x="300" y="300" width="40" height="200" fill="#2D6B4E"/>
  <rect x="400" y="250" width="40" height="250" fill="#2D6B4E"/>
  <rect x="500" y="200" width="40" height="300" fill="#2D6B4E"/>
  
  <!-- Pie Chart -->
  <circle cx="650" cy="200" r="80" fill="none" stroke="#1B2B4D" stroke-width="20"/>
  <path d="M650 120 A80 80 0 0 1 730 200" fill="#8CCFB0"/>
  <path d="M650 120 A80 80 0 0 0 650 280" fill="#2D6B4E"/>
  
  <!-- Data Points -->
  <circle cx="200" cy="400" r="6" fill="#8CCFB0"/>
  <circle cx="300" cy="300" r="6" fill="#8CCFB0"/>
  <circle cx="400" cy="350" r="6" fill="#8CCFB0"/>
  <circle cx="500" cy="250" r="6" fill="#8CCFB0"/>
  <circle cx="600" cy="300" r="6" fill="#8CCFB0"/>
  
  <!-- Stats Cards -->
  <rect x="150" y="520" width="150" height="20" rx="5" fill="#8CCFB0" fill-opacity="0.2"/>
  <rect x="325" y="520" width="150" height="20" rx="5" fill="#2D6B4E" fill-opacity="0.2"/>
  <rect x="500" y="520" width="150" height="20" rx="5" fill="#1B2B4D" fill-opacity="0.2"/>
</svg> 